<svg xmlns="http://www.w3.org/2000/svg" width="17.761" height="17.757" viewBox="0 0 17.761 17.757">
  <path id="Icon_awesome-instagram" data-name="Icon awesome-instagram" d="M8.877,6.563a4.553,4.553,0,1,0,4.553,4.553A4.545,4.545,0,0,0,8.877,6.563Zm0,7.512a2.96,2.96,0,1,1,2.96-2.96A2.965,2.965,0,0,1,8.877,14.076Zm5.8-7.7a1.062,1.062,0,1,1-1.062-1.062A1.059,1.059,0,0,1,14.678,6.377Zm3.015,1.078a5.255,5.255,0,0,0-1.434-3.721A5.29,5.29,0,0,0,12.538,2.3c-1.466-.083-5.86-.083-7.326,0A5.282,5.282,0,0,0,1.491,3.73,5.272,5.272,0,0,0,.057,7.451c-.083,1.466-.083,5.86,0,7.326A5.255,5.255,0,0,0,1.491,18.5a5.3,5.3,0,0,0,3.721,1.434c1.466.083,5.86.083,7.326,0A5.255,5.255,0,0,0,16.259,18.5a5.29,5.29,0,0,0,1.434-3.721c.083-1.466.083-5.856,0-7.322ZM15.8,16.35a3,3,0,0,1-1.688,1.688c-1.169.464-3.942.357-5.234.357s-4.069.1-5.234-.357A3,3,0,0,1,1.955,16.35c-.464-1.169-.357-3.942-.357-5.234s-.1-4.069.357-5.234A3,3,0,0,1,3.643,4.194c1.169-.464,3.942-.357,5.234-.357s4.069-.1,5.234.357A3,3,0,0,1,15.8,5.882c.464,1.169.357,3.942.357,5.234S16.263,15.185,15.8,16.35Z" transform="translate(0.005 -2.238)" fill="#f67c01"/>
</svg>
