<svg xmlns="http://www.w3.org/2000/svg" width="17.268" height="17.268" viewBox="0 0 17.268 17.268">
  <path id="Icon_awesome-facebook-square" data-name="Icon awesome-facebook-square" d="M15.418,2.25H1.85A1.85,1.85,0,0,0,0,4.1V17.667a1.85,1.85,0,0,0,1.85,1.85H7.14V13.647H4.712V10.884H7.14V8.778a3.373,3.373,0,0,1,3.61-3.719,14.711,14.711,0,0,1,2.14.187V7.6H11.685A1.382,1.382,0,0,0,10.127,9.09v1.794h2.651l-.424,2.763H10.127v5.871h5.29a1.85,1.85,0,0,0,1.85-1.85V4.1a1.85,1.85,0,0,0-1.85-1.85Z" transform="translate(0 -2.25)" fill="#f67c01"/>
</svg>
